<svg xmlns="http://www.w3.org/2000/svg" width="457" height="99"><rect width="457" height="99" rx="49.5" ry="49.5" style="fill:#fa5c5c"/><text data-name="Itch.io Store" transform="matrix(.968 0 0 .964 151.314 64.362)" style="fill:#fff;font-size:41.086px;font-family:Helvetica;font-weight:700">Itch.io Store</text><path d="M82.975 25.114C80.725 26.706 76 31.938 76 33.53v2.275a5.635 5.635 0 0 0 5.175 5.459 5.505 5.505 0 0 0 5.4-5.459 5.4 5.4 0 1 0 10.8 0A5.554 5.554 0 0 0 103 41.264a5.7 5.7 0 0 0 5.625-5.459 5.36 5.36 0 0 0 5.4 5.459 5.505 5.505 0 0 0 5.4-5.459 5.505 5.505 0 0 0 5.4 5.459A5.635 5.635 0 0 0 130 35.805V33.53c0-1.365-4.725-6.824-6.975-8.189-7.425-.227-12.375-.227-20.025-.227-7.65-.228-17.775 0-20.025 0Zm14.4 14.786a6.017 6.017 0 0 1-1.125 1.365 6.114 6.114 0 0 1-4.275 1.82 7.1 7.1 0 0 1-4.5-1.82c-.225-.455-.675-.91-.9-1.365a6.017 6.017 0 0 1-1.125 1.365 6.114 6.114 0 0 1-4.275 1.82.821.821 0 0 1-.675-.227c-.225 2.5-.45 5-.45 6.824v2.73c0 5.232-.45 17.288 2.25 20.017 4.5 1.137 12.375 1.592 20.7 1.592 8.1 0 16.2-.455 20.7-1.592 2.925-2.957 2.25-14.786 2.25-20.017v-2.73c0-1.82-.225-4.094-.45-6.824-.225 0-.45.227-.675.227a7.1 7.1 0 0 1-4.5-1.82A6.017 6.017 0 0 1 119.2 39.9a3.86 3.86 0 0 1-.675 1.365 6.247 6.247 0 0 1-4.5 1.82 5.731 5.731 0 0 1-4.275-1.82c-.45-.455-.675-.91-1.125-1.365a6.017 6.017 0 0 1-1.125 1.365 6.247 6.247 0 0 1-4.5 1.82h-.45a7.1 7.1 0 0 1-4.5-1.82 3.86 3.86 0 0 0-.675-1.365Zm-4.5 5.914a5.977 5.977 0 0 1 5.4 2.275 32.882 32.882 0 0 1 4.725-.228 32.882 32.882 0 0 1 4.725.227 5.977 5.977 0 0 1 5.4-2.275c.9 0 4.275 0 6.525 6.6l2.475 9.1c1.8 6.824-.675 7.052-3.6 7.052-4.5-.228-7.2-3.64-7.2-6.824a51.122 51.122 0 0 1-16.65 0 6.776 6.776 0 0 1-7.2 6.824c-3.15 0-5.625-.228-3.6-7.052l2.475-9.1c2.25-6.599 5.625-6.599 6.525-6.599ZM103 51.046s-4.725 4.549-5.625 6.142l3.15-.227v2.73c0 .227 1.35 0 2.475 0h2.475V56.96l3.15.227c-.9-1.587-5.625-6.141-5.625-6.141Z" style="fill-rule:evenodd;fill:#fff"/></svg>