<svg xmlns="http://www.w3.org/2000/svg" width="300" height="168.75">
  <path fill="#574a5c" d="M198.07 84.373l-9.584 9.558 2.39 2.34 11.947-11.89-11.948-11.894-2.39 2.336zm-91.308.005l-9.585 9.558 2.39 2.335 11.947-11.89-11.948-11.89-2.39 2.338z"/>
  <path fill="#519547" d="M83.927 83.107L35.53 108.323 22.628 83.557 71.023 58.34l12.904 24.767z"/>
  <path fill="#87c424" d="M81.894 73.968l-38.588 38.587L23.56 92.81l38.587-38.59 19.747 19.75z"/>
  <path fill="#ffd91f" d="M251.305 81.77c0 7.743-6.276 14.02-14.02 14.02-7.74 0-14.017-6.277-14.017-14.02 0-7.742 6.276-14.018 14.018-14.018 7.743 0 14.02 6.276 14.02 14.02zm-7.485-15.66l-1.485-.54 3.174-8.716 1.48.54zm5.04 3.143l-1.21-1.016 5.995-7.146 1.21 1.02zm2.438 3.364l8.078-4.664.79 1.37-8.078 4.663zm2.602 5.236l9.187-1.62.274 1.556-9.18 1.62zm.275 5.758l9.186 1.62-.27 1.56-9.182-1.62zm-1.823 5.69l8.078 4.668-.79 1.37-8.08-4.664zm-3.475 4.757l5.962 7.106-1.22 1.017-5.96-7.107zm-5.055 3.386l3.172 8.716-1.486.54-3.172-8.715zm-7.326 1.28h1.58v9.33h-1.58zm-5.736-1.305l1.485.54-3.188 8.768-1.486-.54zm-5.064-3.36l1.21 1.017-5.96 7.108-1.212-1.017zm-2.42-3.12l-8.08 4.665-.79-1.37 8.08-4.664zm-2.63-5.23l-9.134 1.61-.274-1.556 9.134-1.61zm-.248-6.29l-9.186-1.62.274-1.557 9.187 1.62zm2.087-5.423l-8.08-4.662.792-1.37 8.078 4.664zm3.21-4.49l-5.96-7.102 1.21-1.018 5.962 7.104zm5.066-3.36l-3.19-8.763 1.49-.54 3.19 8.766zm5.74-10.37h1.58v9.33h-1.58z"/>
  <path fill="#dce8eb" d="M267.92 87.862c-2.405 0-4.625.678-6.475 1.788-2.776-4.378-7.647-7.338-13.198-7.338-6.845 0-12.642 4.378-14.74 10.607-1.17-.44-2.404-.68-3.7-.68-5.857 0-10.544 4.68-10.544 10.54 0 5.86 4.687 10.544 10.545 10.544h37.99c7.09 0 12.764-5.674 12.764-12.766.062-6.97-5.674-12.704-12.642-12.704z"/>
  <path fill="#bca057" d="M171.078 110.394l-43.5-1.803 1.805-43.49 43.5 1.803-1.805 43.5z"/>
  <path fill="#e9dcb7" d="M172.882 66.895l-43.5-1.803 4.66-7.01 34.828 1.443z"/>
  <path fill="#ffeecf" d="M158.448 78.426l.258-6.226 10.375.43-.25 6.227-10.374-.43z"/>
  <path fill="#7f4f0b" d="M154.34 66.12l-6.39-.264-.523 12.616 6.39.265.523-12.616z"/>
  <path fill="#bca057" d="M154.34 66.13l-6.39-.264.938-7.164 5.117.212z"/>
  <path fill="#36a631" d="M54.5 77.314l-6.183 6.183c-.483.483-.492 1.278 0 1.77.482.482 1.277.49 1.77 0l3.528-3.53c1.466-1.465 3.825-1.465 5.29 0 1.466 1.465 1.466 3.824 0 5.29l-6.183 6.183-1.77-1.77 6.184-6.182c.483-.483.49-1.278 0-1.77-.49-.49-1.278-.49-1.77 0l-3.53 3.53c-1.464 1.465-3.823 1.465-5.29 0-1.464-1.465-1.464-3.824 0-5.29l6.185-6.183 1.77 1.77z"/>
  <path fill="#36a631" d="M58.022 91.77l-.688.688-12.65-12.648.69-.688L58.02 91.77zM48.12 76.376l-.69.688 12.65 12.65.687-.69L48.12 76.377z"/>
</svg>
