<svg height="35" width="176" xmlns="http://www.w3.org/2000/svg">
  <rect fill="#ff424d" height="35" rx="17.5" width="176"/>
  <path d="M47.28 13.83h2.85a1.7 1.7 0 0 1 1.1.31 1.3 1.3 0 0 1 .37 1.06 1.28 1.28 0 0 1-.42 1.03 1.56 1.56 0 0 1-1.05.36h-2.85zm-1.75 8.57h4.59a5.66 5.66 0 0 0 1.67-.22 3.32 3.32 0 0 0 1.14-.58 2.24 2.24 0 0 0 .66-.89 2.86 2.86 0 0 0 .21-1.1 2.9 2.9 0 0 0-.47-1.7 2.19 2.19 0 0 0-1.4-.87V17a2.38 2.38 0 0 0 1.05-.83 2.23 2.23 0 0 0 .37-1.3 2.19 2.19 0 0 0-.8-1.86 3.48 3.48 0 0 0-2.16-.62h-4.86zm1.75-4.55h3.1a1.78 1.78 0 0 1 1.23.4 1.46 1.46 0 0 1 .44 1.14 1.52 1.52 0 0 1-.44 1.17 1.74 1.74 0 0 1-1.24.41h-3.1v-3.12zm9.12.3a2.12 2.12 0 0 1 .16-.76 2.01 2.01 0 0 1 .4-.61 1.74 1.74 0 0 1 .58-.4 1.92 1.92 0 0 1 .76-.15 1.65 1.65 0 0 1 .74.16 1.8 1.8 0 0 1 .56.42 1.95 1.95 0 0 1 .36.6 2.58 2.58 0 0 1 .16.74zm5.32 1.05a4.15 4.15 0 0 0-.1-1.58 3.83 3.83 0 0 0-.65-1.35 3.37 3.37 0 0 0-1.13-.95 3.24 3.24 0 0 0-1.53-.35 3.28 3.28 0 0 0-2.56 1.14 3.74 3.74 0 0 0-.7 1.22 4.36 4.36 0 0 0-.24 1.46 4.9 4.9 0 0 0 .23 1.54 3.33 3.33 0 0 0 .69 1.2 3.12 3.12 0 0 0 1.1.78 3.83 3.83 0 0 0 1.52.28 3.92 3.92 0 0 0 1.13-.16 3.2 3.2 0 0 0 .97-.47 3 3 0 0 0 1.18-1.83H60.1a1.78 1.78 0 0 1-.63.9 1.92 1.92 0 0 1-1.13.3 1.98 1.98 0 0 1-.87-.18 1.72 1.72 0 0 1-.6-.46 2 2 0 0 1-.35-.7 2.78 2.78 0 0 1-.12-.8h5.32zm7.7-1.61a2.78 2.78 0 0 0-.34-1.17 2.58 2.58 0 0 0-.72-.8 3.16 3.16 0 0 0-1-.5 4.37 4.37 0 0 0-1.2-.15 3.76 3.76 0 0 0-1.57.3 3.15 3.15 0 0 0-1.1.82 3.49 3.49 0 0 0-.68 1.24 5.07 5.07 0 0 0-.23 1.53 4.62 4.62 0 0 0 .24 1.48 3.32 3.32 0 0 0 .68 1.19 3.19 3.19 0 0 0 1.1.78 3.7 3.7 0 0 0 1.5.29 3.27 3.27 0 0 0 2.24-.75 3.5 3.5 0 0 0 1.07-2.17h-1.6a2.02 2.02 0 0 1-.56 1.22 1.6 1.6 0 0 1-1.16.44 1.7 1.7 0 0 1-.88-.22 1.82 1.82 0 0 1-.6-.57 2.45 2.45 0 0 1-.34-.8 3.91 3.91 0 0 1-.1-.9 3.8 3.8 0 0 1 .2-1.33 2.2 2.2 0 0 1 .5-.8 1.56 1.56 0 0 1 .64-.4 2.3 2.3 0 0 1 .66-.1 1.76 1.76 0 0 1 1.1.34 1.5 1.5 0 0 1 .55 1.02h1.6zm6.17 4.72a3.3 3.3 0 0 0 1.14-.8 3.39 3.39 0 0 0 .72-1.2 4.92 4.92 0 0 0 0-3.06 3.39 3.39 0 0 0-.72-1.2 3.3 3.3 0 0 0-1.14-.79 4.31 4.31 0 0 0-3.1 0 3.3 3.3 0 0 0-1.14.8 3.38 3.38 0 0 0-.72 1.2 4.92 4.92 0 0 0 0 3.06 3.38 3.38 0 0 0 .72 1.2 3.3 3.3 0 0 0 1.14.79 4.31 4.31 0 0 0 3.1 0zm-2.47-1.2a1.94 1.94 0 0 1-.65-.59 2.56 2.56 0 0 1-.37-.82 3.67 3.67 0 0 1 0-1.85 2.47 2.47 0 0 1 .37-.82 1.98 1.98 0 0 1 .65-.58 2.02 2.02 0 0 1 1.84 0 1.98 1.98 0 0 1 .65.58 2.48 2.48 0 0 1 .37.82 3.67 3.67 0 0 1 0 1.85 2.57 2.57 0 0 1-.37.82 1.95 1.95 0 0 1-.65.59 2.02 2.02 0 0 1-1.84 0zm5.9 1.29h1.6v-4.3a2.23 2.23 0 0 1 .14-.8 1.82 1.82 0 0 1 .35-.59 1.48 1.48 0 0 1 .5-.36 1.46 1.46 0 0 1 .6-.13 1.15 1.15 0 0 1 1 .39 1.97 1.97 0 0 1 .27 1.14v4.65h1.6v-4.24a2.4 2.4 0 0 1 .36-1.43 1.35 1.35 0 0 1 1.18-.5 1.58 1.58 0 0 1 .73.14.92.92 0 0 1 .4.4 1.62 1.62 0 0 1 .16.62q.03.35.03.79v4.22h1.6v-5a2.39 2.39 0 0 0-.64-1.88 2.62 2.62 0 0 0-1.79-.56 2.53 2.53 0 0 0-1.33.33 3.22 3.22 0 0 0-.93.88 1.66 1.66 0 0 0-.8-.91 2.62 2.62 0 0 0-1.23-.3 2.96 2.96 0 0 0-.77.1 2.38 2.38 0 0 0-.6.24 2.14 2.14 0 0 0-.47.38 4.1 4.1 0 0 0-.4.49h-.04v-1h-1.51zm13.43-4.26a2.12 2.12 0 0 1 .17-.75 2.01 2.01 0 0 1 .39-.61 1.74 1.74 0 0 1 .58-.4 1.92 1.92 0 0 1 .77-.15 1.65 1.65 0 0 1 .73.16 1.8 1.8 0 0 1 .56.42 1.95 1.95 0 0 1 .37.6 2.58 2.58 0 0 1 .16.73zm5.32 1.05a4.15 4.15 0 0 0-.1-1.57 3.83 3.83 0 0 0-.65-1.35 3.37 3.37 0 0 0-1.12-.95 3.24 3.24 0 0 0-1.54-.35 3.28 3.28 0 0 0-2.56 1.14 3.74 3.74 0 0 0-.7 1.22 4.36 4.36 0 0 0-.24 1.46 4.9 4.9 0 0 0 .23 1.54 3.33 3.33 0 0 0 .68 1.2 3.12 3.12 0 0 0 1.12.78 3.83 3.83 0 0 0 1.5.28 3.92 3.92 0 0 0 1.13-.16 3.2 3.2 0 0 0 .98-.47 3 3 0 0 0 1.18-1.83h-1.52a1.78 1.78 0 0 1-.63.9 1.92 1.92 0 0 1-1.13.3 1.98 1.98 0 0 1-.87-.17 1.72 1.72 0 0 1-.6-.47 2 2 0 0 1-.35-.69 2.78 2.78 0 0 1-.12-.8h5.32zm11.18-2.12a1.79 1.79 0 0 0-.26-.98 2.02 2.02 0 0 0-.66-.65 2.99 2.99 0 0 0-.93-.36 4.95 4.95 0 0 0-1.05-.11 6.14 6.14 0 0 0-1.18.1 3.06 3.06 0 0 0-1.03.4 2.33 2.33 0 0 0-.75.74 2.4 2.4 0 0 0-.33 1.16h1.6a1.1 1.1 0 0 1 .49-.86 2 2 0 0 1 1.1-.28 3.89 3.89 0 0 1 .5.03 1.58 1.58 0 0 1 .49.14.98.98 0 0 1 .36.3.82.82 0 0 1 .15.5.71.71 0 0 1-.18.53 1.06 1.06 0 0 1-.47.26 3.88 3.88 0 0 1-.7.11 8.2 8.2 0 0 0-.82.12q-.5.06-1 .16a2.91 2.91 0 0 0-.9.35 1.81 1.81 0 0 0-.65.66 2.15 2.15 0 0 0-.24 1.09 2.03 2.03 0 0 0 .2.93 1.87 1.87 0 0 0 .55.66 2.46 2.46 0 0 0 .79.39 3.28 3.28 0 0 0 .93.13 4.6 4.6 0 0 0 1.34-.2 2.82 2.82 0 0 0 1.17-.68.97.97 0 0 0 .42.69 1.54 1.54 0 0 0 .81.2c.07 0 .15 0 .24-.02l.28-.04.27-.06c.1-.02.16-.05.22-.07v-1.1a1.04 1.04 0 0 1-.22.03h-.17a.33.33 0 0 1-.3-.13.85.85 0 0 1-.08-.42v-3.72zm-1.6 2.9a1.08 1.08 0 0 1-.19.63 1.52 1.52 0 0 1-.45.43 1.91 1.91 0 0 1-.58.24 2.6 2.6 0 0 1-.58.07 2.96 2.96 0 0 1-.46-.04 1.72 1.72 0 0 1-.48-.15 1.12 1.12 0 0 1-.37-.29.67.67 0 0 1-.16-.45 1.2 1.2 0 0 1 .1-.52.93.93 0 0 1 .3-.35 1.47 1.47 0 0 1 .42-.21 3.44 3.44 0 0 1 .49-.12q.53-.1 1.06-.15a1.94 1.94 0 0 0 .9-.28v1.19zm7.43 2.43h1.75v-3.83h2.66a4.28 4.28 0 0 0 1.74-.3 2.68 2.68 0 0 0 1.03-.77 2.62 2.62 0 0 0 .5-1 4.18 4.18 0 0 0 .14-1 4.26 4.26 0 0 0-.14-1 2.62 2.62 0 0 0-.5-1.01 2.74 2.74 0 0 0-1.03-.77 4.2 4.2 0 0 0-1.74-.31h-4.41v10zm1.75-8.57h2.59a2.97 2.97 0 0 1 .66.07 1.35 1.35 0 0 1 .54.26 1.3 1.3 0 0 1 .38.51 2.05 2.05 0 0 1 .14.82 1.73 1.73 0 0 1-.16.79 1.4 1.4 0 0 1-.42.5 1.73 1.73 0 0 1-.57.27 2.28 2.28 0 0 1-.6.08h-2.56v-3.3zm13.43 3.24a1.79 1.79 0 0 0-.26-.97 2.02 2.02 0 0 0-.66-.66 2.99 2.99 0 0 0-.93-.36 4.95 4.95 0 0 0-1.05-.11 6.14 6.14 0 0 0-1.18.11 3.06 3.06 0 0 0-1.03.4 2.33 2.33 0 0 0-.75.73 2.4 2.4 0 0 0-.33 1.17h1.6a1.1 1.1 0 0 1 .49-.87 2 2 0 0 1 1.1-.28 3.89 3.89 0 0 1 .5.03 1.58 1.58 0 0 1 .49.14.98.98 0 0 1 .36.3.82.82 0 0 1 .15.5.71.71 0 0 1-.18.53 1.06 1.06 0 0 1-.47.26 3.88 3.88 0 0 1-.7.12 8.2 8.2 0 0 0-.82.12q-.5.05-1 .16a2.91 2.91 0 0 0-.9.34 1.81 1.81 0 0 0-.65.66 2.15 2.15 0 0 0-.24 1.09 2.03 2.03 0 0 0 .2.93 1.87 1.87 0 0 0 .54.66 2.46 2.46 0 0 0 .8.39 3.28 3.28 0 0 0 .93.13 4.6 4.6 0 0 0 1.34-.2 2.82 2.82 0 0 0 1.17-.68.97.97 0 0 0 .42.69 1.54 1.54 0 0 0 .81.2c.07 0 .15 0 .24-.02l.28-.04.27-.06.22-.06V21.3a1.04 1.04 0 0 1-.22.03h-.17a.33.33 0 0 1-.3-.13.85.85 0 0 1-.08-.42v-3.72zm-1.6 2.9a1.08 1.08 0 0 1-.19.64 1.52 1.52 0 0 1-.45.42 1.91 1.91 0 0 1-.58.24 2.6 2.6 0 0 1-.58.07 2.96 2.96 0 0 1-.46-.04 1.72 1.72 0 0 1-.48-.15 1.12 1.12 0 0 1-.37-.29.67.67 0 0 1-.16-.44 1.2 1.2 0 0 1 .1-.53.93.93 0 0 1 .3-.35 1.47 1.47 0 0 1 .41-.2 3.44 3.44 0 0 1 .5-.13q.52-.1 1.06-.15a1.94 1.94 0 0 0 .9-.28v1.19zm2.59-3.61h1.2v4.27a4.37 4.37 0 0 0 .09.8 1.2 1.2 0 0 0 .3.58 1.35 1.35 0 0 0 .6.35 3.54 3.54 0 0 0 1 .12 4.71 4.71 0 0 0 .52-.03l.52-.06v-1.23a1.66 1.66 0 0 1-.33.04l-.34.01a1.14 1.14 0 0 1-.42-.06.47.47 0 0 1-.23-.2.75.75 0 0 1-.1-.3 3.85 3.85 0 0 1-.02-.43v-3.87h1.46v-1.19h-1.44V13h-1.6v2.17h-1.2v1.2zm5.39 6.04h1.6v-3.44a3.35 3.35 0 0 1 .15-1.07 2.35 2.35 0 0 1 .42-.77 1.75 1.75 0 0 1 .62-.48 1.83 1.83 0 0 1 .77-.16 2.88 2.88 0 0 1 .34.02l.34.05V15l-.22-.03a3.5 3.5 0 0 0-.38-.01 1.9 1.9 0 0 0-.71.14 2.48 2.48 0 0 0-.64.37 2.66 2.66 0 0 0-.5.5 1.63 1.63 0 0 0-.26.58h-.03v-1.4h-1.5v7.24zm9.79-.09a3.3 3.3 0 0 0 1.15-.79 3.4 3.4 0 0 0 .71-1.2 4.92 4.92 0 0 0 0-3.06 3.4 3.4 0 0 0-.71-1.2 3.3 3.3 0 0 0-1.15-.8 4.31 4.31 0 0 0-3.1 0 3.3 3.3 0 0 0-1.14.8 3.37 3.37 0 0 0-.72 1.2 4.92 4.92 0 0 0 0 3.06 3.37 3.37 0 0 0 .72 1.2 3.29 3.29 0 0 0 1.15.8 4.31 4.31 0 0 0 3.1-.01zm-2.47-1.2a1.94 1.94 0 0 1-.65-.58 2.56 2.56 0 0 1-.37-.82 3.67 3.67 0 0 1 0-1.86 2.47 2.47 0 0 1 .37-.82 1.97 1.97 0 0 1 .65-.58 2.02 2.02 0 0 1 1.85 0 1.98 1.98 0 0 1 .64.58 2.49 2.49 0 0 1 .37.82 3.67 3.67 0 0 1 0 1.86 2.58 2.58 0 0 1-.37.82 1.95 1.95 0 0 1-.64.58 2.02 2.02 0 0 1-1.84 0zm5.9 1.3h1.6v-4.28a2.17 2.17 0 0 1 .13-.74 1.9 1.9 0 0 1 .35-.61 1.57 1.57 0 0 1 .55-.4 1.73 1.73 0 0 1 .73-.15 1.32 1.32 0 0 1 1.05.38 1.97 1.97 0 0 1 .36 1.24v4.55h1.6v-4.97a2.36 2.36 0 0 0-.69-1.85 2.7 2.7 0 0 0-1.87-.61 2.54 2.54 0 0 0-1.3.34 2.67 2.67 0 0 0-.95.94l-.03-.02v-1.07h-1.51v7.24zM21 10h2.71v15H21zm9.58.1a5.56 5.56 0 1 1-5.42 5.55 5.49 5.49 0 0 1 5.42-5.56z" fill="#fff" fill-rule="evenodd"/>
</svg>
