<svg height="600" viewBox="0 0 800 600" width="800" xmlns="http://www.w3.org/2000/svg"><path d="m0 0h800v600h-800z" fill="#fff"/><circle cx="750" cy="545" fill="#90c" r="10"/><circle cx="750" cy="436" fill="#90c" r="10"/><circle cx="750" cy="327" fill="#90c" r="10"/><circle cx="750" cy="218" fill="#90c" r="10"/><circle cx="750" cy="109" fill="#90c" r="10"/><circle cx="651" cy="436" fill="#ad33d6" r="10"/><circle cx="651" cy="327" fill="#ad33d6" r="10"/><circle cx="651" cy="218" fill="#ad33d6" r="10"/><circle cx="651" cy="109" fill="#ad33d6" r="10"/><circle cx="550" cy="327" fill="#c266e0" r="10"/><circle cx="550" cy="218" fill="#c266e0" r="10"/><circle cx="550" cy="109" fill="#c266e0" r="10"/><circle cx="450" cy="218" fill="#d699eb" r="10"/><circle cx="450" cy="109" fill="#d699eb" r="10"/><path d="m700 490h100v2h-100z" fill="#90c"/><path d="m600 490h100v2h-100z" fill="#ad33d6"/><path d="m500 490h100v2h-100z" fill="#c266e0"/><path d="m400 490h100v2h-100z" fill="#d699eb"/><path d="m0 490h400v2h-400z" fill="#ebccf5"/><path d="m700 381h100v2h-100z" fill="#90c"/><path d="m600 381h100v2h-100z" fill="#ad33d6"/><path d="m500 381h100v2h-100z" fill="#c266e0"/><path d="m400 381h100v2h-100z" fill="#d699eb"/><path d="m0 381h400v2h-400z" fill="#ebccf5"/><path d="m700 272h100v2h-100z" fill="#90c"/><path d="m600 272h100v2h-100z" fill="#ad33d6"/><path d="m500 272h100v2h-100z" fill="#c266e0"/><path d="m400 272h100v2h-100z" fill="#d699eb"/><path d="m0 272h400v2h-400z" fill="#ebccf5"/><path d="m700 163h100v2h-100z" fill="#90c"/><path d="m600 163h100v2h-100z" fill="#ad33d6"/><path d="m500 163h100v2h-100z" fill="#c266e0"/><path d="m400 163h100v2h-100z" fill="#d699eb"/><path d="m0 163h400v2h-400z" fill="#ebccf5"/><path d="m700 0h100v55h-100z" fill="#90c"/><path d="m600 0h100v55h-100z" fill="#ad33d6"/><path d="m500 0h100v55h-100z" fill="#c266e0"/><path d="m400 0h100v55h-100z" fill="#d699eb"/><path d="m0 0h400v55h-400z" fill="#ebccf5"/><g font-family="Helvetica, Arial, sans-serif"><text font-size="18" x="31.656" y="528.346"><tspan font-weight="700">Photoshop File</tspan><tspan dy="21.6" fill="#808080" x="31.656">Uncensored, unmarked, layered,</tspan><tspan dy="21.6" fill="#808080" x="31.656">large-sized full-colored image (PSD).</tspan></text><text font-size="18" x="33.44" y="418.672"><tspan font-weight="700">High-Resolution Colored Artworks</tspan><tspan dy="21.6" fill="#808080" x="33.44">Uncensored, unmarked, large-sized</tspan><tspan dy="21.6" fill="#808080" x="33.44">full-colored image sets (JPG).</tspan></text><text font-size="18" x="32.698" y="310.323"><tspan font-weight="700">Low-Resolution Colored Artworks</tspan><tspan dy="21.6" fill="#808080" x="32.698">Uncensored, unmarked, small-sized</tspan><tspan dy="21.6" fill="#808080" x="32.698">full-colored image sets (JPG).</tspan></text><text font-size="18" x="31.536" y="200.411"><tspan font-weight="700">Lineart</tspan><tspan dy="21.6" fill="#808080" x="31.536">Uncensored, unmarked, large-sized</tspan><tspan dy="21.6" fill="#808080" x="31.536">black/white outlines (PNG).</tspan></text><text font-size="18" x="33.031" y="81.492"><tspan font-weight="700">Access to Patron-Only Posts</tspan><tspan dy="21.6" fill="#808080" x="33.031">Works-in-progress (WIP), early access to</tspan><tspan dy="21.6" fill="#808080" x="33.031">select projects, polls, Manful Top Secret</tspan><tspan dy="21.6" fill="#808080" x="33.031">Walkthroughs.</tspan></text><text fill="#fff" font-size="24" font-weight="700" x="729.492" y="36.438">$25</text><text fill="#fff" font-size="24" font-weight="700" x="629.492" y="36.438">$15</text><text fill="#fff" font-size="24" font-weight="700" x="536.492" y="36.438">$5</text><text fill="#fff" font-size="24" font-weight="700" x="438.492" y="36.438">$1</text><text fill="#90c" font-size="18" font-weight="700" x="32.492" y="34.437">Tier Benefits</text></g></svg>